# xmcd
#
# Track frame offsets:
#	150
#	16084
#	29203
#	39914
#	55656
#	66960
#	81462
#	107337
#	123570
#	141109
#	158668
#	174996
#
# Disc length: 2588 seconds
# Revision: 3
# Processed by: cddbd v1.5.2PL0 Copyright (c) Steve Scherf et al.
# Submitted via: dBpowerAMP V12.0
#
DISCID=970a1a0c
DTITLE=The Highwomen - The Highwomen
DYEAR=2019
DGENRE=Country
TTITLE0=Highwomen
TTITLE1=Redesigning Women
TTITLE2=Loose Change
TTITLE3=Crowded Table
TTITLE4=My Name Can't Be Mama
TTITLE5=If She Ever Leaves Me
TTITLE6=Old Soul
TTITLE7=Don't Call Me
TTITLE8=My Only Child
TTITLE9=Heaven Is A Honkey Tonk
TTITLE10=Cocktail And A Song
TTITLE11=Wheels Of Laredo
EXTD=
EXTT0=
EXTT1=
EXTT2=
EXTT3=
EXTT4=
EXTT5=
EXTT6=
EXTT7=
EXTT8=
EXTT9=
EXTT10=
EXTT11=
PLAYORDER=
